<svg width="78" height="78" viewBox="0 0 78 78" fill="none" xmlns="http://www.w3.org/2000/svg">
<path d="M41.8409 62.6364C38.5682 62.6364 35.6591 62.0758 33.1136 60.9545C30.5833 59.8333 28.5833 58.2727 27.1136 56.2727C25.6439 54.2727 24.8636 51.9621 24.7727 49.3409H33.3182C33.3939 50.5985 33.8106 51.697 34.5682 52.6364C35.3258 53.5606 36.3333 54.2803 37.5909 54.7955C38.8485 55.3106 40.2576 55.5682 41.8182 55.5682C43.4848 55.5682 44.9621 55.2803 46.25 54.7045C47.5379 54.1136 48.5455 53.2955 49.2727 52.25C50 51.2045 50.3561 50 50.3409 48.6364C50.3561 47.2273 49.9924 45.9848 49.25 44.9091C48.5076 43.8333 47.4318 42.9924 46.0227 42.3864C44.6288 41.7803 42.947 41.4773 40.9773 41.4773H36.8636V34.9773H40.9773C42.5985 34.9773 44.0152 34.697 45.2273 34.1364C46.4545 33.5758 47.4167 32.7879 48.1136 31.7727C48.8106 30.7424 49.1515 29.553 49.1364 28.2045C49.1515 26.8864 48.8561 25.7424 48.25 24.7727C47.6591 23.7879 46.8182 23.0227 45.7273 22.4773C44.6515 21.9318 43.3864 21.6591 41.9318 21.6591C40.5076 21.6591 39.1894 21.9167 37.9773 22.4318C36.7652 22.947 35.7879 23.6818 35.0455 24.6364C34.303 25.5758 33.9091 26.697 33.8636 28H25.75C25.8106 25.3939 26.5606 23.1061 28 21.1364C29.4545 19.1515 31.3939 17.6061 33.8182 16.5C36.2424 15.3788 38.9621 14.8182 41.9773 14.8182C45.0833 14.8182 47.7803 15.4015 50.0682 16.5682C52.3712 17.7197 54.1515 19.2727 55.4091 21.2273C56.6667 23.1818 57.2955 25.3409 57.2955 27.7045C57.3106 30.3258 56.5379 32.5227 54.9773 34.2955C53.4318 36.0682 51.4015 37.2273 48.8864 37.7727V38.1364C52.1591 38.5909 54.6667 39.803 56.4091 41.7727C58.1667 43.7273 59.0379 46.1591 59.0227 49.0682C59.0227 51.6742 58.2803 54.0076 56.7955 56.0682C55.3258 58.1136 53.2955 59.7197 50.7045 60.8864C48.1288 62.053 45.1742 62.6364 41.8409 62.6364Z" fill="black"/>
<circle cx="39" cy="39" r="35.5" stroke="black" stroke-width="7"/>
</svg>
