<?xml version="1.0" encoding="UTF-8"?><!DOCTYPE svg PUBLIC "-//W3C//DTD SVG 1.1//EN"
		"http://www.w3.org/Graphics/SVG/1.1/DTD/svg11.dtd">
<svg version="1.2" viewBox="0 0 1000 1000" preserveAspectRatio="xMidYMid" fill-rule="evenodd" stroke-width="10"
     stroke-linejoin="round" xmlns="http://www.w3.org/2000/svg">
	<g>
		<path fill="none" stroke="rgb(0,0,0)"
		      d="M 100,233 L 155,233 155,166 211,166 211,100 901,100 901,634 845,634 845,701 789,701 789,767 C 530,763 525,872 279,898 190,882 158,870 100,852 L 100,233 Z"/>
		<path fill="none" stroke="rgb(0,0,0)" d="M 100,100 L 100,100 Z"/>
		<path fill="none" stroke="rgb(0,0,0)" d="M 901,901 L 901,901 Z"/>
		<path fill="none" stroke="rgb(0,0,0)" d="M 155,233 L 789,233 789,701"/>
		<path fill="none" stroke="rgb(0,0,0)" d="M 100,100 L 100,100 Z"/>
		<path fill="none" stroke="rgb(0,0,0)" d="M 901,901 L 901,901 Z"/>
		<path fill="none" stroke="rgb(0,0,0)" d="M 211,166 L 845,166 845,634"/>
		<path fill="none" stroke="rgb(0,0,0)" d="M 100,100 L 100,100 Z"/>
		<path fill="none" stroke="rgb(0,0,0)" d="M 901,901 L 901,901 Z"/>
	</g>
</svg>