<?xml version="1.0" encoding="UTF-8"?><!DOCTYPE svg PUBLIC "-//W3C//DTD SVG 1.1//EN"
		"http://www.w3.org/Graphics/SVG/1.1/DTD/svg11.dtd">
<svg version="1.2" viewBox="0 0 1000 1000" preserveAspectRatio="xMidYMid" fill-rule="evenodd" stroke-width="10"
     stroke-linejoin="round" xmlns="http://www.w3.org/2000/svg">
	<g>
		<path fill="none" stroke="rgb(0,0,0)"
		      d="M 500,290 C 381,290 290,381 290,500 290,619 381,710 500,710 619,710 710,619 710,500 710,381 619,290 500,290 Z"/>
		<path fill="none" stroke="rgb(0,0,0)"
		      d="M 100,500 C 100,439 137,390 191,373 181,354 176,333 176,309 176,234 234,176 309,176 333,176 354,181 373,191 390,137 439,100 500,100 561,100 610,137 627,191 646,181 667,176 691,176 766,176 824,234 824,309 824,333 819,354 809,373 863,390 901,439 901,500 901,561 863,610 809,627 819,646 824,667 824,691 824,766 766,824 691,824 667,824 646,819 627,809 610,863 561,901 500,901 439,901 390,863 373,809 354,819 333,824 309,824 234,824 176,766 176,691 176,667 181,646 191,627 137,610 100,561 100,500 Z"/>
		<path fill="none" stroke="rgb(0,0,0)" d="M 100,100 L 100,100 Z"/>
		<path fill="none" stroke="rgb(0,0,0)" d="M 901,901 L 901,901 Z"/>
	</g>
</svg>