<svg width="116" height="54" viewBox="0 0 116 54" fill="none" xmlns="http://www.w3.org/2000/svg">
<path d="M0.204487 53.5422L68.556 53.7769C68.556 53.7769 63.3033 49.3591 63.3157 45.757C63.3281 42.1548 76.6331 31.9 76.6482 27.4773C76.6634 23.0545 63.4287 12.8561 63.4402 9.49532C63.4518 6.1345 68.7368 1.12267 68.7368 1.12267L0.385324 0.887923L0.204487 53.5422ZM92.3973 43.3349L111.467 34.2966L111.467 34.2848C112.219 33.9286 112.905 33.449 113.499 32.8658C114.898 31.4746 115.688 29.5847 115.695 27.6114C115.702 25.6381 114.925 23.7428 113.535 22.342C112.946 21.7548 112.262 21.2704 111.513 20.9091L111.513 20.8973L111.272 20.7845L92.5059 11.7282L92.4516 27.5315L92.3973 43.3349Z" fill="black"/>
</svg>
