<?xml version="1.0" encoding="UTF-8"?><!DOCTYPE svg PUBLIC "-//W3C//DTD SVG 1.1//EN"
		"http://www.w3.org/Graphics/SVG/1.1/DTD/svg11.dtd">
<svg version="1.2" viewBox="0 0 1000 1000" preserveAspectRatio="xMidYMid" fill-rule="evenodd" stroke-width="10"
     stroke-linejoin="round" xmlns="http://www.w3.org/2000/svg">
	<g>
		<path fill="none" stroke="rgb(0,0,0)"
		      d="M 500,100 C 727,100 900,273 900,500 900,727 727,900 500,900 273,900 100,727 100,500 100,273 273,100 500,100 Z"/>
		<path fill="none" stroke="rgb(0,0,0)"
		      d="M 255,326 L 247,339 239,352 232,365 226,378 220,392 215,407 211,421 207,435 204,450 202,465 201,480 200,495 200,510 201,525 203,540 205,555 208,570 212,584 217,598 222,613 228,626 235,640 242,653 250,666 258,678 268,690 278,701 288,712 299,722 310,732 322,742 334,750 347,758 360,765 374,772 387,778 402,783 416,788 430,792 445,795 460,797 475,799 490,800 505,800 520,799 535,798 550,796 565,793 579,789 593,785 608,780 622,774 635,768 648,761 661,753 674,745 255,326 Z"/>
		<path fill="none" stroke="rgb(0,0,0)"
		      d="M 745,674 L 753,661 761,648 768,635 774,622 780,608 785,593 789,579 793,565 796,550 798,535 799,520 800,505 800,490 799,475 797,460 795,445 792,430 788,416 783,402 778,387 772,374 765,360 758,347 750,334 742,322 732,310 722,299 712,288 701,278 690,268 678,258 666,250 653,242 640,235 626,228 613,222 598,217 584,212 570,208 555,205 540,203 525,201 510,200 495,200 480,201 465,202 450,204 435,207 421,211 407,215 392,220 378,226 365,232 352,239 339,247 326,255 745,674 Z"/>
		<path fill="none" stroke="rgb(0,0,0)" d="M 100,100 L 100,100 Z"/>
		<path fill="none" stroke="rgb(0,0,0)" d="M 901,901 L 901,901 Z"/>
	</g>
</svg>