<?xml version="1.0" encoding="UTF-8"?><!DOCTYPE svg PUBLIC "-//W3C//DTD SVG 1.1//EN"
		"http://www.w3.org/Graphics/SVG/1.1/DTD/svg11.dtd">
<svg version="1.2" viewBox="0 0 1000 1000" preserveAspectRatio="xMidYMid" fill-rule="evenodd" stroke-width="10"
     stroke-linejoin="round" xmlns="http://www.w3.org/2000/svg">
	<g>
		<path fill="none" stroke="rgb(0,0,0)"
		      d="M 241,763 C 302,768 370,802 423,778 428,775 432,769 434,763 436,757 435,751 434,745 432,736 425,729 423,721 418,707 416,691 417,676 418,667 421,657 425,649 430,641 438,634 445,629 455,622 465,616 476,614 483,612 490,612 496,614 512,617 526,625 539,635 549,643 559,652 564,664 570,678 571,695 568,709 566,720 558,728 554,738 550,746 545,754 544,762 543,769 542,778 547,783 600,827 682,775 749,771 L 750,771 C 746,700 697,614 739,558 743,553 752,554 758,555 766,556 773,562 781,565 790,570 798,579 809,581 823,584 838,583 851,577 863,571 872,561 880,550 889,537 896,521 899,505 901,498 901,491 899,484 897,473 892,461 885,452 880,443 873,436 865,431 858,426 849,423 840,422 826,420 811,423 797,428 789,430 783,437 775,440 769,441 763,442 758,440 752,437 746,434 744,428 721,372 753,301 758,237 L 757,237 C 696,232 628,199 575,222 570,225 566,231 564,237 562,243 563,249 564,255 566,264 573,270 575,279 579,293 582,309 581,324 580,333 577,342 572,351 568,359 560,366 553,371 543,378 533,384 521,386 515,388 508,388 502,386 486,383 472,375 459,365 449,357 439,348 434,336 428,322 427,305 430,291 432,280 440,271 444,262 448,254 453,246 454,238 455,231 456,221 451,217 398,174 316,225 249,229 L 250,231 C 254,302 303,388 261,443 257,448 248,447 242,446 234,445 226,440 219,436 210,431 202,423 191,421 177,418 162,419 149,425 137,430 128,441 120,452 111,465 104,480 101,496 100,503 100,510 101,517 103,529 108,540 115,550 120,558 127,566 135,571 142,576 151,579 160,580 174,581 189,578 203,574 211,571 217,564 225,562 231,561 237,560 242,562 248,564 254,568 256,574 279,630 247,701 242,765 L 241,763 Z"/>
		<path fill="none" stroke="rgb(0,0,0)" d="M 100,200 L 100,200 Z"/>
		<path fill="none" stroke="rgb(0,0,0)" d="M 901,801 L 901,801 Z"/>
	</g>
</svg>