<svg xmlns="http://www.w3.org/2000/svg" width="128" height="128" viewBox="0 0 128 128">
  <path fill="none" stroke="#404040" stroke-linecap="round" stroke-width="2" stroke-linejoin="round" d="M99.7427493,78.8188477 C99.0842174,87.9220833 95.7238181,95.0883528 89.6614505,100.317871 C83.599083,105.547389 75.6096609,108.162109 65.6929446,108.162109 C54.8465362,108.162109 46.3148019,104.511186 40.0974857,97.2092285 C33.8801694,89.9072714 30.7715579,79.8841783 30.7715579,67.1396484 L30.7715579,61.9682617 C30.7715579,53.8334554 32.2048118,46.6671859 35.0713626,40.4692383 C37.9379134,34.2712906 42.034308,29.516374 47.3606693,26.2043457 C52.6870305,22.8923174 58.8752011,21.2363281 65.9253665,21.2363281 C75.6871341,21.2363281 83.5506622,23.8510481 89.5161868,29.0805664 C95.4817115,34.3100847 98.9292681,41.6506689 99.8589603,51.1025391 L82.4273196,51.1025391 C82.0012107,45.6405977 80.4807995,41.6797812 77.8660403,39.2199707 C75.2512812,36.7601602 71.2710964,35.5302734 65.9253665,35.5302734 C60.1147906,35.5302734 55.7666082,37.6123652 52.8806888,41.7766113 C49.9947694,45.9408574 48.5130948,52.4001841 48.4356204,61.1547852 L48.4356204,67.5463867 C48.4356204,76.6883595 49.8204536,83.3704216 52.5901614,87.5927734 C55.3598693,91.8151253 59.72742,93.9262695 65.6929446,93.9262695 C71.0774117,93.9262695 75.0963331,92.6963827 77.7498294,90.2365723 C80.4033258,87.7767618 81.923737,83.9708916 82.3111087,78.8188477 L99.7427493,78.8188477 Z"/>
</svg>
