<svg xmlns="http://www.w3.org/2000/svg" width="128" height="128" viewBox="0 0 128 128">
  <path fill="none" stroke="#404040" stroke-linecap="round" stroke-width="2" stroke-linejoin="round" d="M100.672437,66.6166992 C100.672437,74.9451914 99.2004463,82.2470389 96.2564212,88.5224609 C93.3123961,94.7978829 89.0997917,99.6399569 83.6184818,103.048828 C78.1371718,106.457699 71.8521598,108.162109 64.7632571,108.162109 C57.7518289,108.162109 51.4958693,106.477068 45.9951907,103.106934 C40.4945122,99.7367996 36.2334871,94.923778 33.2119876,88.6677246 C30.1904881,82.4116712 28.6603928,75.2163493 28.6216556,67.081543 L28.6216556,62.8979492 C28.6216556,54.5694571 30.1226985,47.2385571 33.1248294,40.9050293 C36.1269603,34.5715015 40.3686171,29.7100593 45.8499271,26.3205566 C51.331237,22.931054 57.5968807,21.2363281 64.6470462,21.2363281 C71.6972117,21.2363281 77.9628554,22.931054 83.4441653,26.3205566 C88.9254753,29.7100593 93.1671321,34.5715015 96.169263,40.9050293 C99.1713939,47.2385571 100.672437,54.5500888 100.672437,62.8398438 L100.672437,66.6166992 Z M83.0083743,62.7817383 C83.0083743,53.9109257 81.4201741,47.1707587 78.2437259,42.5610352 C75.0672777,37.9513116 70.5350965,35.6464844 64.6470462,35.6464844 C58.7977331,35.6464844 54.2849202,37.9222591 51.108472,42.473877 C47.9320238,47.0254948 46.3244553,53.6978727 46.2857181,62.4912109 L46.2857181,66.6166992 C46.2857181,75.2550888 47.8739183,81.9565191 51.0503665,86.7211914 C54.2268147,91.4858637 58.7977325,93.8681641 64.7632571,93.8681641 C70.6125702,93.8681641 75.1060149,91.573021 78.2437259,86.982666 C81.3814369,82.392311 82.9696372,75.7005648 83.0083743,66.9072266 L83.0083743,62.7817383 Z"/>
</svg>
