<svg xmlns="http://www.w3.org/2000/svg" width="128" height="128" viewBox="0 0 128 128">
  <path fill="none" stroke="#404040" stroke-linecap="round" stroke-width="2" stroke-linejoin="round" d="M65.6057864,76.0297852 L51.7185794,76.0297852 L51.7185794,107 L34.2869388,107 L34.2869388,22.3984375 L65.7219974,22.3984375 C75.716188,22.3984375 83.4247697,24.6257915 88.8479739,29.0805664 C94.2711781,33.5353413 96.9827396,39.8300375 96.9827396,47.9648438 C96.9827396,53.7366825 95.7334845,58.549704 93.2349368,62.4040527 C90.7363892,66.2584014 86.9498873,69.3282763 81.8753177,71.6137695 L100.17854,106.186523 L100.17854,107 L81.4685794,107 L65.6057864,76.0297852 Z M51.7185794,61.9101562 L65.7801028,61.9101562 C70.1574034,61.9101562 73.5468552,60.7964792 75.9485599,58.5690918 C78.3502646,56.3417044 79.5510989,53.2718295 79.5510989,49.359375 C79.5510989,45.3694462 78.4180536,42.2317823 76.151929,39.9462891 C73.8858044,37.6607959 70.4091953,36.5180664 65.7219974,36.5180664 L51.7185794,36.5180664 L51.7185794,61.9101562 Z"/>
</svg>
