<svg xmlns="http://www.w3.org/2000/svg" width="128" height="128" viewBox="0 0 128 128">
  <path fill="none" stroke="#404040" stroke-linecap="round" stroke-width="2" stroke-linejoin="round" d="M79.5510989,84.8037109 C79.5510989,81.5110512 78.3890012,78.9834886 76.0647708,77.2209473 C73.7405404,75.4584059 69.5569885,73.5990495 63.5139896,71.6428223 C57.4709906,69.686595 52.6870215,67.7594496 49.1619388,65.8613281 C39.5551199,60.670547 34.7517825,53.6785921 34.7517825,44.8852539 C34.7517825,40.3142675 36.0397742,36.2372412 38.6157962,32.6540527 C41.1918182,29.0708642 44.8911627,26.2721455 49.7139407,24.2578125 C54.5367188,22.2434795 59.9501575,21.2363281 65.9544193,21.2363281 C71.9974182,21.2363281 77.3818045,22.3306368 82.1077396,24.5192871 C86.8336747,26.7079374 90.5039667,29.7971806 93.1187259,33.7871094 C95.7334851,37.7770382 97.040845,42.3092194 97.040845,47.3837891 L79.6092044,47.3837891 C79.6092044,43.5100718 78.3890018,40.4983018 75.9485599,38.3483887 C73.508118,36.1984756 70.0799296,35.1235352 65.6638919,35.1235352 C61.4028029,35.1235352 58.0908243,36.0241609 55.7278568,37.8254395 C53.3648892,39.626718 52.1834232,41.9993342 52.1834232,44.9433594 C52.1834232,47.6936986 53.5682563,49.9985259 56.3379642,51.8579102 C59.107672,53.7172945 63.1846983,55.4604411 68.5691653,57.0874023 C78.4858816,60.0701647 85.710256,63.7695092 90.2425052,68.1855469 C94.7747544,72.6015846 97.040845,78.1021806 97.040845,84.6875 C97.040845,92.0088257 94.2711787,97.7515254 88.731763,101.915771 C83.1923473,106.080018 75.7355534,108.162109 66.3611575,108.162109 C59.8533125,108.162109 53.926614,106.970959 48.5808841,104.588623 C43.2351542,102.206287 39.158128,98.9427291 36.3496829,94.7978516 C33.5412379,90.6529741 32.1370364,85.8496367 32.1370364,80.3876953 L49.6267825,80.3876953 C49.6267825,89.723354 55.2048518,94.3911133 66.3611575,94.3911133 C70.506035,94.3911133 73.7405404,93.5485924 76.0647708,91.8635254 C78.3890012,90.1784584 79.5510989,87.8252104 79.5510989,84.8037109 Z"/>
</svg>
