<svg width="78" height="78" viewBox="0 0 78 78" fill="none" xmlns="http://www.w3.org/2000/svg">
<path d="M25.1364 62V55.9091L41.2955 40.0682C42.8409 38.5076 44.1288 37.1212 45.1591 35.9091C46.1894 34.697 46.9621 33.5227 47.4773 32.3864C47.9924 31.25 48.25 30.0379 48.25 28.75C48.25 27.2803 47.9167 26.0227 47.25 24.9773C46.5833 23.9167 45.6667 23.0985 44.5 22.5227C43.3333 21.947 42.0076 21.6591 40.5227 21.6591C38.9924 21.6591 37.6515 21.9773 36.5 22.6136C35.3485 23.2348 34.4545 24.1212 33.8182 25.2727C33.197 26.4242 32.8864 27.7955 32.8864 29.3864H24.8636C24.8636 26.4318 25.5379 23.8636 26.8864 21.6818C28.2348 19.5 30.0909 17.8106 32.4545 16.6136C34.8333 15.4167 37.5606 14.8182 40.6364 14.8182C43.7576 14.8182 46.5 15.4015 48.8636 16.5682C51.2273 17.7348 53.0606 19.3333 54.3636 21.3636C55.6818 23.3939 56.3409 25.7121 56.3409 28.3182C56.3409 30.0606 56.0076 31.7727 55.3409 33.4545C54.6742 35.1364 53.5 37 51.8182 39.0455C50.1515 41.0909 47.8106 43.5682 44.7955 46.4773L36.7727 54.6364V54.9545H57.0455V62H25.1364Z" fill="black"/>
<circle cx="39" cy="39" r="35.5" stroke="black" stroke-width="7"/>
</svg>
