<svg xmlns="http://www.w3.org/2000/svg" width="128" height="140" viewBox="0 0 128 140">
  <path fill="none" stroke="#404040" stroke-width="2" d="M94.309888,107 L36.3206302,107 L36.3206302,95.4951172 L63.688306,66.3261719 C67.4458117,62.2200316 70.2251622,58.6368968 72.0264407,55.5766602 C73.8277193,52.5164235 74.728345,49.6111791 74.728345,46.8608398 C74.728345,43.1033341 73.7792985,40.149669 71.8811771,37.9997559 C69.9830556,35.8498428 67.2714942,34.7749023 63.7464114,34.7749023 C59.9501685,34.7749023 56.9577668,36.0822623 54.7691165,38.6970215 C52.5804663,41.3117807 51.4861575,44.7496532 51.4861575,49.0107422 L34.6355716,49.0107422 C34.6355716,43.8586982 35.8654584,39.1522023 38.3252689,34.8911133 C40.7850793,30.6300243 44.2616885,27.2889932 48.7552005,24.8679199 C53.2487126,22.4468466 58.3425744,21.2363281 64.0369388,21.2363281 C72.7528027,21.2363281 79.5220221,23.3281041 84.3448001,27.5117188 C89.1675781,31.6953334 91.578931,37.6026637 91.578931,45.2338867 C91.578931,49.4175014 90.4943064,53.6785265 88.3250247,58.0170898 C86.155743,62.3556532 82.4370302,67.4107784 77.1687747,73.1826172 L57.9358646,93.4614258 L94.309888,93.4614258 L94.309888,107 Z"/>
</svg>
