<svg xmlns="http://www.w3.org/2000/svg" width="128" height="140" viewBox="0 0 128 140">
  <path fill="none" stroke="#404040" stroke-width="2" d="M91.46272,44.8852539 C91.46272,48.9913942 90.4362004,52.6326339 88.3831302,55.809082 C86.33006,58.9855302 83.5022888,61.522777 79.8997318,63.4208984 C84.0058721,65.3964943 87.2597458,68.1177398 89.6614505,71.5847168 C92.0631552,75.0516938 93.2639896,79.1287201 93.2639896,83.815918 C93.2639896,91.3309295 90.7073745,97.2673122 85.5940677,101.625244 C80.4807609,105.983176 73.5275426,108.162109 64.7342044,108.162109 C55.9408662,108.162109 48.9682797,105.973492 43.8162357,101.596191 C38.6641917,97.2188909 36.0882083,91.2921923 36.0882083,83.815918 C36.0882083,79.1287201 37.2890427,75.0420096 39.6907474,71.5556641 C42.0924521,68.0693185 45.3269575,65.3577571 49.3943607,63.4208984 C45.7918036,61.522777 42.9737165,58.9855302 40.940015,55.809082 C38.9063134,52.6326339 37.8894778,48.9913942 37.8894778,44.8852539 C37.8894778,37.6801398 40.2911465,31.93744 45.094556,27.6569824 C49.8979654,23.3765248 56.4250811,21.2363281 64.6760989,21.2363281 C72.8883796,21.2363281 79.4058112,23.3571565 84.2285892,27.598877 C89.0513672,31.8405974 91.46272,37.6026654 91.46272,44.8852539 Z M76.4134036,82.5957031 C76.4134036,78.9156717 75.3481474,75.9716907 73.2176028,73.7636719 C71.0870583,71.555653 68.2205505,70.4516602 64.6179935,70.4516602 C61.0541736,70.4516602 58.2070341,71.5459689 56.0764896,73.7346191 C53.9459451,75.9232694 52.8806888,78.8769345 52.8806888,82.5957031 C52.8806888,86.1982602 53.9265768,89.1035046 56.0183841,91.3115234 C58.1101914,93.5195423 61.0154358,94.6235352 64.7342044,94.6235352 C68.3754987,94.6235352 71.2323223,93.5582789 73.3047611,91.4277344 C75.3771998,89.2971899 76.4134036,86.3532089 76.4134036,82.5957031 Z M74.6702396,45.6987305 C74.6702396,42.4060708 73.7986663,39.7622984 72.0554935,37.767334 C70.3123207,35.7723696 67.8525471,34.7749023 64.6760989,34.7749023 C61.5383879,34.7749023 59.0979827,35.7433171 57.3548099,37.6801758 C55.6116371,39.6170344 54.7400638,42.2898593 54.7400638,45.6987305 C54.7400638,49.0688645 55.6116371,51.7804259 57.3548099,53.8334961 C59.0979827,55.8865663 61.5577562,56.9130859 64.7342044,56.9130859 C67.9106526,56.9130859 70.360742,55.8865663 72.0845462,53.8334961 C73.8083504,51.7804259 74.6702396,49.0688645 74.6702396,45.6987305 Z"/>
</svg>
