<svg xmlns="http://www.w3.org/2000/svg" width="128" height="128" viewBox="0 0 128 128">
  <path fill="none" stroke="#404040" stroke-linecap="round" stroke-width="2" stroke-linejoin="round" d="M34.2869388,107 L34.2869388,22.3984375 L63.9207278,22.3984375 C74.1860787,22.3984375 81.9721336,24.3643195 87.2791263,28.2961426 C92.586119,32.2279656 95.2395755,37.9900337 95.2395755,45.5825195 C95.2395755,49.727397 94.1743192,53.3783208 92.0437747,56.5354004 C89.9132302,59.69248 86.9498809,62.0069913 83.153638,63.4790039 C87.4922014,64.5636447 90.9107056,66.7522622 93.4092532,70.0449219 C95.9078009,73.3375816 97.157056,77.3661871 97.157056,82.1308594 C97.157056,90.2656657 94.5617043,96.4247838 89.3709232,100.608398 C84.180142,104.792013 76.781453,106.922526 67.1746341,107 L34.2869388,107 Z M51.7185794,70.1611328 L51.7185794,92.996582 L66.6516849,92.996582 C70.7578252,92.996582 73.9632782,92.0184831 76.26814,90.0622559 C78.5730017,88.1060286 79.7254153,85.4041514 79.7254153,81.956543 C79.7254153,74.2091084 75.7161781,70.2773443 67.6975833,70.1611328 L51.7185794,70.1611328 Z M51.7185794,57.8427734 L64.6179935,57.8427734 C73.4113317,57.6878247 77.8079349,54.1821632 77.8079349,47.3256836 C77.8079349,43.4907035 76.6942579,40.7307213 74.4668704,39.0456543 C72.239483,37.3605873 68.7241373,36.5180664 63.9207278,36.5180664 L51.7185794,36.5180664 L51.7185794,57.8427734 Z"/>
</svg>
