<svg xmlns="http://www.w3.org/2000/svg" width="128" height="128" viewBox="0 0 128 128">
  <path fill="none" stroke="#404040" stroke-linecap="round" stroke-width="2" stroke-linejoin="round" d="M98.6677982,96.3085938 C95.5300872,100.0661 91.0947474,102.981028 85.3616458,105.053467 C79.6285442,107.125906 73.2757432,108.162109 66.3030521,108.162109 C58.9817264,108.162109 52.5611363,106.564225 47.0410892,103.368408 C41.521042,100.172591 37.2600169,95.5338846 34.2578861,89.4521484 C31.2557552,83.3704123 29.7159756,76.2235111 29.6385013,68.0112305 L29.6385013,62.2587891 C29.6385013,53.8140854 31.062071,46.5025537 33.9092532,40.3239746 C36.7564354,34.1453955 40.8625142,29.4195313 46.2276126,26.1462402 C51.5927111,22.8729491 57.8777231,21.2363281 65.0828372,21.2363281 C75.115765,21.2363281 82.9599248,23.6283127 88.6155521,28.4123535 C94.2711793,33.1963944 97.6218945,40.1592967 98.6677982,49.3012695 L81.7010013,49.3012695 C80.9262578,44.4591229 79.2121636,40.9147248 76.5586673,38.6679688 C73.905171,36.4212127 70.2542472,35.2978516 65.6057864,35.2978516 C59.678999,35.2978516 55.1661861,37.5252056 52.0672122,41.9799805 C48.9682384,46.4347553 47.3994064,53.0587125 47.3606693,61.8520508 L47.3606693,67.2558594 C47.3606693,76.126672 49.045711,82.8281023 52.415845,87.3603516 C55.7859791,91.8926008 60.7248945,94.1586914 67.2327396,94.1586914 C73.7793218,94.1586914 78.4470811,92.7641741 81.2361575,89.9750977 L81.2361575,75.390625 L65.3733646,75.390625 L65.3733646,62.5493164 L98.6677982,62.5493164 L98.6677982,96.3085938 Z"/>
</svg>
