<svg xmlns="http://www.w3.org/2000/svg" width="128" height="128" viewBox="0 0 128 128">
  <path fill="none" stroke="#404040" stroke-linecap="round" stroke-width="2" stroke-linejoin="round" d="M73.1304446,22.3984375 L90.5620853,22.3984375 L90.5620853,80.96875 C90.5620853,86.353217 89.3709351,91.1081337 86.9885989,95.2336426 C84.6062628,99.3591515 81.2458635,102.545236 76.9073001,104.791992 C72.5687368,107.038748 67.6685579,108.162109 62.2066165,108.162109 C53.2583296,108.162109 46.2857431,105.886335 41.2886478,101.334717 C36.2915525,96.783099 33.7930423,90.3431406 33.7930423,82.0146484 L51.3408939,82.0146484 C51.3408939,86.1595259 52.2124672,89.2197167 53.95564,91.1953125 C55.6988127,93.1709083 58.4491108,94.1586914 62.2066165,94.1586914 C65.5380134,94.1586914 68.1914699,93.0159619 70.1670657,90.7304688 C72.1426616,88.4449756 73.1304446,85.1911018 73.1304446,80.96875 L73.1304446,22.3984375 Z"/>
</svg>
