<svg xmlns="http://www.w3.org/2000/svg" width="128" height="128" viewBox="0 0 128 128">
  <path fill="none" stroke="#404040" stroke-linecap="round" stroke-width="2" stroke-linejoin="round" d="M51.3118411,77.1918945 L51.3118411,107 L33.8802005,107 L33.8802005,22.3984375 L66.8841068,22.3984375 C73.2370031,22.3984375 78.8247565,23.5605353 83.6475345,25.8847656 C88.4703125,28.208996 92.1793412,31.5112904 94.7747318,35.791748 C97.3701223,40.0722056 98.6677982,44.9433321 98.6677982,50.4052734 C98.6677982,58.6950284 95.8303428,65.2318283 90.155347,70.0158691 C84.4803512,74.79991 76.6265072,77.1918945 66.5935794,77.1918945 L51.3118411,77.1918945 Z M51.3118411,63.0722656 L66.8841068,63.0722656 C71.4938303,63.0722656 75.009176,61.9876411 77.4302493,59.8183594 C79.8513226,57.6490777 81.0618411,54.5501504 81.0618411,50.5214844 C81.0618411,46.3766069 79.8416385,43.0258917 77.4011966,40.4692383 C74.9607547,37.9125849 71.5906712,36.5955408 67.290845,36.5180664 L51.3118411,36.5180664 L51.3118411,63.0722656 Z"/>
</svg>
