<svg xmlns="http://www.w3.org/2000/svg" width="128" height="128" viewBox="0 0 128 128">
  <path fill="none" stroke="#404040" stroke-linecap="round" stroke-width="2" stroke-linejoin="round" d="M100.556226,66.6166992 C100.556226,74.5190825 99.2779184,81.3851434 96.721265,87.2150879 C94.1646116,93.0450324 90.6202134,97.7224759 86.0879642,101.247559 L100.149488,112.287598 L89.0513431,122.107422 L71.0386478,107.63916 C68.9855776,107.987795 66.8550651,108.162109 64.6470462,108.162109 C57.6356179,108.162109 51.3796583,106.477068 45.8789798,103.106934 C40.3783013,99.7367996 36.1172762,94.923778 33.0957767,88.6677246 C30.0742772,82.4116712 28.5441818,75.2163493 28.5054446,67.081543 L28.5054446,62.8979492 C28.5054446,54.5694571 30.0064876,47.2385571 33.0086185,40.9050293 C36.0107494,34.5715015 40.2524062,29.7100593 45.7337161,26.3205566 C51.2150261,22.931054 57.4806698,21.2363281 64.5308353,21.2363281 C71.5810007,21.2363281 77.8466445,22.931054 83.3279544,26.3205566 C88.8092644,29.7100593 93.0509212,34.5715015 96.0530521,40.9050293 C99.055183,47.2385571 100.556226,54.5500888 100.556226,62.8398438 L100.556226,66.6166992 Z M82.8921634,62.7817383 C82.8921634,53.9109257 81.3039631,47.1707587 78.127515,42.5610352 C74.9510668,37.9513116 70.4188855,35.6464844 64.5308353,35.6464844 C58.6815222,35.6464844 54.1687092,37.9222591 50.9922611,42.473877 C47.8158129,47.0254948 46.2082443,53.6978727 46.1695071,62.4912109 L46.1695071,66.6166992 C46.1695071,75.2550888 47.7577074,81.9565191 50.9341556,86.7211914 C54.1106038,91.4858637 58.6815216,93.8681641 64.6470462,93.8681641 C70.4963593,93.8681641 74.989804,91.573021 78.127515,86.982666 C81.265226,82.392311 82.8534262,75.7005648 82.8921634,66.9072266 L82.8921634,62.7817383 Z"/>
</svg>
