<svg xmlns="http://www.w3.org/2000/svg" width="128" height="140" viewBox="0 0 128 140">
  <path fill="none" stroke="#404040" stroke-width="2" d="M93.2639896,72.0205078 C93.2639896,83.719134 90.8429526,92.6672867 86.000806,98.8652344 C81.1586594,105.063182 74.0698631,108.162109 64.7342044,108.162109 C55.5147573,108.162109 48.4646976,105.121287 43.5838138,99.0395508 C38.70293,92.9578146 36.2044198,84.2420815 36.0882083,72.8920898 L36.0882083,57.3198242 C36.0882083,45.5049865 38.5382977,36.5374655 43.4385501,30.4169922 C48.3388025,24.2965189 55.3985463,21.2363281 64.6179935,21.2363281 C73.8374406,21.2363281 80.8875003,24.2674664 85.7683841,30.329834 C90.6492679,36.3922015 93.147778,45.0982505 93.2639896,56.4482422 L93.2639896,72.0205078 Z M76.4715091,54.9375 C76.4715091,47.9260717 75.5127785,42.8225257 73.5952884,39.626709 C71.6777983,36.4308922 68.6853966,34.8330078 64.6179935,34.8330078 C60.6668018,34.8330078 57.7518733,36.353419 55.8731204,39.3942871 C53.9943675,42.4351552 52.9969003,47.1900718 52.8806888,53.6591797 L52.8806888,74.2285156 C52.8806888,81.1237324 53.8200511,86.2466467 55.698804,89.5974121 C57.5775569,92.9481776 60.5893269,94.6235352 64.7342044,94.6235352 C68.8403447,94.6235352 71.803694,93.0159666 73.6243411,89.8007812 C75.4449883,86.5855959 76.3940348,81.6660487 76.4715091,75.0419922 L76.4715091,54.9375 Z"/>
</svg>
