<svg xmlns="http://www.w3.org/2000/svg" width="128" height="140" viewBox="0 0 128 140">
  <path fill="none" stroke="#404040" stroke-width="2" d="M53.403638,57.2617188 L62.3518802,57.2617188 C66.6129692,57.2617188 69.7700014,56.1964625 71.8230716,54.065918 C73.8761418,51.9353735 74.9026614,49.1076023 74.9026614,45.5825195 C74.9026614,42.1736483 73.8858259,39.5201918 71.8521243,37.6220703 C69.8184228,35.7239488 67.019704,34.7749023 63.4558841,34.7749023 C60.2406988,34.7749023 57.5485056,35.6561598 55.3792239,37.4187012 C53.2099423,39.1812425 52.1253177,41.4763856 52.1253177,44.3041992 L35.3328372,44.3041992 C35.3328372,39.8881615 36.5239874,35.927345 38.9063236,32.4216309 C41.2886597,28.9159167 44.6200066,26.1753028 48.9004642,24.199707 C53.1809218,22.2241112 57.8971018,21.2363281 63.0491458,21.2363281 C71.9974327,21.2363281 79.0087559,23.3765248 84.0833255,27.6569824 C89.1578951,31.93744 91.6951419,37.8350861 91.6951419,45.3500977 C91.6951419,49.2238149 90.5136759,52.7875814 88.1507083,56.0415039 C85.7877408,59.2954264 82.6888134,61.7939366 78.8538333,63.5371094 C83.6185056,65.241545 87.1725879,67.79816 89.5161868,71.2070312 C91.8597858,74.6159025 93.0315677,78.644508 93.0315677,83.2929688 C93.0315677,90.8079803 90.2909538,96.8315203 84.8096439,101.36377 C79.3283339,105.896019 72.0749071,108.162109 63.0491458,108.162109 C54.6044421,108.162109 47.6996446,105.934755 42.3345462,101.47998 C36.9694478,97.0252056 34.2869388,91.1372436 34.2869388,83.815918 L51.0794193,83.815918 C51.0794193,86.9923661 52.2705695,89.5877178 54.6529056,91.6020508 C57.0352417,93.6163838 59.9695385,94.6235352 63.4558841,94.6235352 C67.4458129,94.6235352 70.5737927,93.567963 72.8399173,91.4567871 C75.1060419,89.3456112 76.2390872,86.5468924 76.2390872,83.0605469 C76.2390872,74.6158432 71.5906962,70.3935547 62.2937747,70.3935547 L53.403638,70.3935547 L53.403638,57.2617188 Z"/>
</svg>
