<svg xmlns="http://www.w3.org/2000/svg" width="128" height="140" viewBox="0 0 128 140">
  <path fill="none" stroke="#404040" stroke-width="2" d="M38.8191653,65.3964844 L43.7000247,22.3984375 L91.1140872,22.3984375 L91.1140872,36.4018555 L57.4710208,36.4018555 L55.3792239,54.5888672 C59.3691527,52.4583227 63.6108095,51.3930664 68.1043216,51.3930664 C76.1616536,51.3930664 82.475718,53.8915766 87.0467044,58.8886719 C91.6176908,63.8857672 93.9031497,70.877722 93.9031497,79.8647461 C93.9031497,85.3266875 92.7507361,90.2171822 90.4458743,94.536377 C88.1410125,98.8555717 84.8387181,102.206287 80.5388919,104.588623 C76.2390657,106.970959 71.1645722,108.162109 65.3152591,108.162109 C60.2019523,108.162109 55.4567198,107.125906 51.0794193,105.053467 C46.7021187,102.981028 43.2448779,100.0661 40.7075931,96.3085938 C38.1703083,92.551088 36.8242117,88.2706946 36.669263,83.4672852 L53.2874271,83.4672852 C53.6360616,86.9923679 54.8659484,89.7329818 56.9771243,91.689209 C59.0883003,93.6454362 61.8482824,94.6235352 65.2571536,94.6235352 C69.0533966,94.6235352 71.9780093,93.2580703 74.0310794,90.5270996 C76.0841496,87.7961289 77.1106693,83.9321539 77.1106693,78.9350586 C77.1106693,74.1316492 75.9292032,70.4516729 73.5662357,67.8950195 C71.2032681,65.3383661 67.8525529,64.0600586 63.5139896,64.0600586 C59.5240608,64.0600586 56.2895553,65.1059466 53.8103763,67.1977539 L52.1834232,68.7084961 L38.8191653,65.3964844 Z"/>
</svg>
