<svg xmlns="http://www.w3.org/2000/svg" width="128" height="140" viewBox="0 0 128 140">
  <path fill="none" stroke="#404040" stroke-width="2" d="M81.8753177,21.5268555 L81.8753177,35.355957 L80.2483646,35.355957 C72.6558787,35.4721685 66.5451813,37.4477347 61.9160892,41.2827148 C57.286997,45.117695 54.5076466,50.4439763 53.5779544,57.2617188 C58.0714665,52.6907324 63.7463772,50.4052734 70.6028568,50.4052734 C77.9629196,50.4052734 83.812145,53.0393617 88.1507083,58.3076172 C92.4892717,63.5758727 94.6585208,70.5097226 94.6585208,79.109375 C94.6585208,84.6100535 93.4673706,89.5877056 91.0850345,94.0424805 C88.7026984,98.4972553 85.3326149,101.96418 80.9746829,104.443359 C76.616751,106.922538 71.6875197,108.162109 66.1868411,108.162109 C57.2772914,108.162109 50.0819694,105.063182 44.6006595,98.8652344 C39.1193495,92.6672867 36.3787357,84.3970244 36.3787357,74.0541992 L36.3787357,68.0112305 C36.3787357,58.8305205 38.1121981,50.7248887 41.5791751,43.6940918 C45.0461521,36.6632949 50.0238041,31.2208038 56.5122806,27.3664551 C63.000757,23.5121064 70.52534,21.5655926 79.0862552,21.5268555 L81.8753177,21.5268555 Z M65.4895755,63.8857422 C62.7779734,63.8857422 60.3181998,64.592685 58.110181,66.0065918 C55.9021621,67.4204986 54.2752253,69.2895392 53.2293216,71.6137695 L53.2293216,76.7270508 C53.2293216,82.3439408 54.3333145,86.7308599 56.5413333,89.8879395 C58.7493522,93.045019 61.8482795,94.6235352 65.8382083,94.6235352 C69.4407654,94.6235352 72.3556939,93.1999654 74.5830814,90.3527832 C76.8104688,87.505601 77.9241458,83.8159406 77.9241458,79.2836914 C77.9241458,74.6739678 76.8007847,70.955255 74.5540286,68.1274414 C72.3072726,65.2996278 69.2858184,63.8857422 65.4895755,63.8857422 Z"/>
</svg>
