<svg xmlns="http://www.w3.org/2000/svg" width="128" height="140" viewBox="0 0 128 140">
  <path fill="none" stroke="#404040" stroke-width="2" d="M75.5999271,73.1826172 C71.2226265,77.4824434 66.1093964,79.6323242 60.2600833,79.6323242 C52.783809,79.6323242 46.7990055,77.066025 42.3054935,71.9333496 C37.8119814,66.8006742 35.5652591,59.8765084 35.5652591,51.1606445 C35.5652591,45.6212288 36.7757776,40.5370511 39.1968509,35.907959 C41.6179242,31.2788668 44.9976918,27.6763638 49.3362552,25.1003418 C53.6748186,22.5243198 58.5556291,21.2363281 63.9788333,21.2363281 C69.5569862,21.2363281 74.51527,22.6308454 78.8538333,25.4199219 C83.1923967,28.2089983 86.5624802,32.2182356 88.9641849,37.4477539 C91.3658896,42.6772722 92.5860922,48.6620757 92.6248294,55.4023438 L92.6248294,61.6196289 C92.6248294,75.7199598 89.1191679,86.7986251 82.1077396,94.855957 C75.0963113,102.913289 65.1603755,107.213051 52.2996341,107.755371 L48.1741458,107.813477 L48.1741458,93.8100586 L51.8928958,93.7519531 C66.49681,93.0934212 74.3990747,86.2370444 75.5999271,73.1826172 Z M64.3855716,66.7910156 C67.0971737,66.7910156 69.4310534,66.093757 71.3872806,64.6992188 C73.3435078,63.3046805 74.8251824,61.6196388 75.8323489,59.644043 L75.8323489,52.7294922 C75.8323489,47.0351278 74.7477244,42.6191563 72.5784427,39.4814453 C70.409161,36.3437343 67.5039166,34.7749023 63.8626224,34.7749023 C60.4924883,34.7749023 57.722822,36.3146819 55.5535403,39.3942871 C53.3842587,42.4738924 52.2996341,46.3378674 52.2996341,50.9863281 C52.2996341,55.5960517 53.3552062,59.3825535 55.4663821,62.3459473 C57.5775581,65.309341 60.5505915,66.7910156 64.3855716,66.7910156 Z"/>
</svg>
