<svg xmlns="http://www.w3.org/2000/svg" width="128" height="140" viewBox="0 0 128 140">
  <path fill="none" stroke="#404040" stroke-width="2" stroke-linecap="round" stroke-linejoin="round" d="M55.263013,81.0268555 C55.263013,75.6036513 55.9215351,71.2845213 57.2385989,68.0693359 C58.5556628,64.8541506 60.9670157,61.6874342 64.4727298,58.5690918 C67.9784439,55.4507494 70.3123236,52.9135026 71.4744388,50.9572754 C72.636554,49.0010482 73.2176028,46.9383246 73.2176028,44.769043 C73.2176028,38.2224608 70.1961487,34.9492188 64.1531497,34.9492188 C61.2865989,34.9492188 58.9914559,35.8304762 57.2676517,37.5930176 C55.5438475,39.3555589 54.6432217,41.7862801 54.5657474,44.8852539 L37.7151614,44.8852539 C37.7926358,37.4864539 40.1846203,31.6953334 44.8911868,27.5117188 C49.5977533,23.3281041 56.0183434,21.2363281 64.1531497,21.2363281 C72.3654304,21.2363281 78.7375997,23.2215785 83.2698489,27.1921387 C87.8020982,31.1626989 90.0681888,36.7698206 90.0681888,44.0136719 C90.0681888,47.3063316 89.3321935,50.4149431 87.860181,53.3395996 C86.3881684,56.2642562 83.8121851,59.5084457 80.1321536,63.0722656 L75.4256107,67.5463867 C72.4815855,70.3742003 70.7965438,73.6861789 70.3704349,77.4824219 L70.138013,81.0268555 L55.263013,81.0268555 Z M53.5779544,98.8652344 C53.5779544,96.2698438 54.4592119,94.1296471 56.2217532,92.4445801 C57.9842946,90.7595131 60.2407011,89.9169922 62.9910403,89.9169922 C65.7413796,89.9169922 67.9977861,90.7595131 69.7603275,92.4445801 C71.5228688,94.1296471 72.4041263,96.2698438 72.4041263,98.8652344 C72.4041263,101.421888 71.5422371,103.533032 69.8184329,105.19873 C68.0946287,106.864429 65.818854,107.697266 62.9910403,107.697266 C60.1632267,107.697266 57.887452,106.864429 56.1636478,105.19873 C54.4398436,103.533032 53.5779544,101.421888 53.5779544,98.8652344 Z"/>
</svg>
